<?xml version="1.0" encoding="UTF-8"?>
<!-- Generator: Adobe Illustrator 19.2.0, SVG Export Plug-In . SVG Version: 6.00 Build 0)  -->
<svg version="1.1" id="Слой_1" xmlns="http://www.w3.org/2000/svg" xmlns:xlink="http://www.w3.org/1999/xlink" x="0px" y="0px" viewBox="0 0 2048 2048" style="enable-background:new 0 0 2048 2048;" xml:space="preserve">
<style type="text/css">
	.st0{fill:none;}
	.st1{fill:#DFA22F;}
	.st2{fill:#3CB187;}
	.st3{fill:#CE1E5B;}
	.st4{fill:#392538;}
	.st5{fill:#BB242A;}
	.st6{fill:#72C5CD;}
	.st7{fill:#248C73;}
	.st8{fill:#62803A;}
</style>
<g id="Layer_x0020_1">
	<line class="st0" x1="584.1" y1="1583.5" x2="584.1" y2="1583.5"/>
	<line class="st0" x1="712.9" y1="1650.4" x2="712.9" y2="1650.4"/>
	<line class="st0" x1="698.7" y1="1621.8" x2="698.7" y2="1621.8"/>
	<line class="st0" x1="1468.8" y1="1425.7" x2="1468.8" y2="1425.7"/>
	<line class="st0" x1="942.3" y1="441.3" x2="942.3" y2="441.2"/>
	<line class="st0" x1="970.9" y1="427.1" x2="970.9" y2="427.1"/>
	<line class="st0" x1="441.3" y1="1105.7" x2="441.2" y2="1105.7"/>
	<line class="st0" x1="427.1" y1="1077.1" x2="427.1" y2="1077.1"/>
	<g id="_337881696">
		<path id="_337881912" class="st1" d="M1252.1,350.6c-23.3-71.9-100.5-111.2-172.4-87.8c-71.9,23.3-111.2,100.5-87.8,172.4    l353.8,1088.5c24.3,67.1,96.8,104.9,166.4,84.8c72.6-20.9,116.9-98,93.7-169.4C1604.9,1436.4,1252.1,350.6,1252.1,350.6    L1252.1,350.6z"/>
		<path id="_337881768" class="st2" d="M703.9,528.7c-23.4-71.9-100.6-111.2-172.4-87.8c-71.9,23.4-111.2,100.5-87.8,172.4    l353.8,1088.5c24.3,67.1,96.8,104.9,166.4,84.8c72.6-20.9,116.9-98,93.7-169.4C1056.7,1614.6,703.9,528.7,703.9,528.7L703.9,528.7    z"/>
		<path id="_337881480" class="st3" d="M1697.4,1252.1c71.9-23.4,111.2-100.5,87.8-172.4c-23.3-71.9-100.5-111.2-172.4-87.8    L524.3,1345.7c-67.1,24.3-104.9,96.8-84.8,166.4c20.9,72.6,98,116.9,169.4,93.7C611.6,1604.9,1697.4,1252.1,1697.4,1252.1    L1697.4,1252.1z"/>
		<path id="_337881936" class="st4" d="M751.2,1559.6c70.9-23,162.2-52.7,260.2-84.5c-23-70.9-52.7-162.2-84.5-260.2l-260.2,84.6    L751.2,1559.6L751.2,1559.6z"/>
		<path id="_337881288" class="st5" d="M1299.4,1381.4c98.4-32,189.8-61.7,260.2-84.5c-23-70.9-52.7-162.2-84.6-260.2l-260.2,84.6    L1299.4,1381.4L1299.4,1381.4z"/>
		<path id="_337881840" class="st6" d="M1519.3,703.9c71.9-23.4,111.2-100.5,87.8-172.4c-23.4-71.9-100.5-111.2-172.4-87.8    L346.2,797.4c-67.1,24.3-104.9,96.8-84.8,166.4c20.9,72.6,98,116.9,169.4,93.7C433.4,1056.7,1519.3,703.9,1519.3,703.9    L1519.3,703.9z"/>
		<path id="_337881888" class="st7" d="M573,1011.4c70.9-23,162.2-52.7,260.2-84.5c-32-98.4-61.7-189.8-84.5-260.2l-260.2,84.6    L573,1011.4L573,1011.4z"/>
		<path id="_337881552" class="st8" d="M1121.2,833.2c98.4-32,189.8-61.7,260.2-84.6c-32-98.4-61.7-189.8-84.6-260.2L1036.7,573    L1121.2,833.2L1121.2,833.2z"/>
	</g>
</g>
</svg>